<svg id="Layer_1" data-name="Layer 1" xmlns="http://www.w3.org/2000/svg" viewBox="0 0 226.86 35.02">
  <defs>
    <style>
      .cls-1 {
        stroke: #1d1d1b;
        stroke-miterlimit: 10;
        stroke-width: 0.5px;
      }

      .cls-2 {
        fill: #951b81;
      }
    </style>
  </defs>
  <g>
    <path class="cls-1" d="M18.76,47.74a14.18,14.18,0,0,1-6.25-1.29,9.38,9.38,0,0,1-4.14-3.84A12.38,12.38,0,0,1,6.9,36.34V14.91h3.81V36.38q0,4,2.12,5.93a8.33,8.33,0,0,0,5.93,2,8.35,8.35,0,0,0,5.93-2q2.11-2,2.11-5.93V14.91h3.87V36.34a12.28,12.28,0,0,1-1.48,6.27A9.32,9.32,0,0,1,25,46.45,14.33,14.33,0,0,1,18.76,47.74Z" transform="translate(-6.65 -12.97)"/>
    <path class="cls-1" d="M37.88,47.1V24.61h3.54v2.76h.65a4.12,4.12,0,0,1,1.84-2.16,6.66,6.66,0,0,1,3.26-.69h2.67v3.31h-2.9A5.61,5.61,0,0,0,43,29.19a5.39,5.39,0,0,0-1.49,4.2V47.1Z" transform="translate(-6.65 -12.97)"/>
  </g>
  <g>
    <path class="cls-1" d="M121.35,47.1V14.91h7.49l11.22,29.75h.6V14.91h3.81V47.1H137L125.81,17.3h-.65V47.1Z" transform="translate(-6.65 -12.97)"/>
    <path class="cls-1" d="M162.31,47.74a12,12,0,0,1-6-1.45,10.11,10.11,0,0,1-4-4.07,12.49,12.49,0,0,1-1.42-6.07V35.6a12.56,12.56,0,0,1,1.42-6.11,10.14,10.14,0,0,1,4-4.07,12.27,12.27,0,0,1,11.4-.09,9.64,9.64,0,0,1,3.82,3.88,12.19,12.19,0,0,1,1.37,5.93V36.8H154.54a7.51,7.51,0,0,0,7.86,7.72,6.67,6.67,0,0,0,4.46-1.33A9,9,0,0,0,169.25,40l3.13,1.51a13.52,13.52,0,0,1-1.91,2.85,9.77,9.77,0,0,1-3.17,2.39A11.17,11.17,0,0,1,162.31,47.74Zm-7.72-13.93h14.62a6.78,6.78,0,0,0-2.14-4.87,7.18,7.18,0,0,0-5-1.75A7.35,7.35,0,0,0,157,28.94,7.71,7.71,0,0,0,154.59,33.81Z" transform="translate(-6.65 -12.97)"/>
    <path class="cls-1" d="M181.76,47.1l-4.51-22.49h3.68l3.73,20h.64l4.92-20h6l4.92,20h.64l3.73-20h3.68L204.7,47.1h-6.21l-5-20h-.6L188,47.1Z" transform="translate(-6.65 -12.97)"/>
    <path class="cls-1" d="M224.19,47.74a12.33,12.33,0,0,1-7.05-1.93,8.33,8.33,0,0,1-3.47-6.12l3.44-.78a7.52,7.52,0,0,0,1.38,3.47,5.55,5.55,0,0,0,2.51,1.8,9.57,9.57,0,0,0,3.19.53,6.91,6.91,0,0,0,4-1A3.13,3.13,0,0,0,229.67,41a2.54,2.54,0,0,0-1.41-2.46,14.91,14.91,0,0,0-3.84-1.17L222.54,37a17.42,17.42,0,0,1-4-1.15,7.2,7.2,0,0,1-2.84-2.12,5.19,5.19,0,0,1-1.06-3.35A5.53,5.53,0,0,1,217,25.67a10.36,10.36,0,0,1,6.21-1.7,10.25,10.25,0,0,1,6.18,1.72,7.86,7.86,0,0,1,3.06,4.85l-3.4.88a4.76,4.76,0,0,0-2-3.43,7.08,7.08,0,0,0-3.86-1,6.77,6.77,0,0,0-3.63.85,2.8,2.8,0,0,0-1.34,2.51,2.57,2.57,0,0,0,1.27,2.37,9.91,9.91,0,0,0,3.38,1.12l1.88.33a23.79,23.79,0,0,1,4.3,1.12,7.18,7.18,0,0,1,3,2.05,5.18,5.18,0,0,1,1.13,3.49A6,6,0,0,1,230.79,46,11,11,0,0,1,224.19,47.74Z" transform="translate(-6.65 -12.97)"/>
  </g>
  <g>
    <path class="cls-2" d="M53.94,47.1,69.07,13h7.71q.61,2.71,1.19,6.16c.37,2.3.72,4.7,1,7.22s.58,5,.81,7.53.42,4.89.56,7.15.21,4.29.23,6.07H75.5c0-1.48,0-3.21-.13-5.22s-.25-4.12-.43-6.36-.4-4.49-.65-6.74-.5-4.38-.77-6.4-.52-3.77-.78-5.28h-.43l-13,30Zm6.31-8.31,1-4.57H78.53l-1,4.57Z" transform="translate(-6.65 -12.97)"/>
    <path class="cls-2" d="M85.71,47.1l.79-4.57h20.73l-.8,4.57Zm5.21-29.54L91.71,13h20.73l-.79,4.56ZM93.59,47.1l6-34.1h5l-6,34.1Z" transform="translate(-6.65 -12.97)"/>
  </g>
</svg>
